<svg xmlns="http://www.w3.org/2000/svg" xmlns:xlink="http://www.w3.org/1999/xlink" width="50" height="30" viewBox="0 0 50 30">
    <defs>
        <path id="prefix__a" d="M0 0H50V30H0z"/>
    </defs>
    <g fill="none" fill-rule="evenodd">
        <mask id="prefix__b" fill="#fff">
            <use xlink:href="#prefix__a"/>
        </mask>
        <g fill="#2C6CB7" mask="url(#prefix__b)">
            <g transform="translate(11 2)">
                <path d="M17.989 8.983l-2.976 2.29c-.178.138-.378.244-.591.314l-1.534.509c-.192.064-.36.184-.482.345l-.897 1.18c-.177.234-.448.378-.741.394l-8.35.46c-.64.035-1.151.544-1.19 1.184-.033.555.39 1.031.945 1.064.037.003.074.003.11.001l11.544-.58c.141-.008.279-.045.404-.109l4.87-2.48.14 2.183c.033.528.472.938 1 .936l4.207-.013c.422 0 .762-.344.761-.766l-.003-.065c-.042-.472-.431-.838-.905-.85l-3.04-.08-.036-3.11-.017-1.249c-.015-1.105-.922-1.988-2.027-1.973-.432.006-.85.152-1.192.415z"/>
                <circle cx="19.5" cy="6" r="2"/>
            </g>
        </g>
    </g>
</svg>
