<svg xmlns="http://www.w3.org/2000/svg" width="50" height="30" viewBox="0 0 50 30">
    <g fill="none" fill-rule="evenodd">
        <path d="M0 0H50V30H0z"/>
        <g fill="#2C6CB7" transform="translate(27 2)">
            <path d="M14.359 12.497l-.829-1.06c-.176-.225-.493-.285-.74-.14-.26.155-.403.45-.36.751l.147 1.032-3.622.245c-.345.023-.623.292-.66.636-.036.35-.305.633-.653.689l-2.551.402-2.662-2.758c-.38-.394-1.008-.405-1.402-.025-.028.027-.055.056-.08.087-.4.491-.363 1.206.087 1.653l3.164 3.14c.225.223.541.326.854.28l5.914-.89 2.048-.388-.025.681c-.014.4.298.735.697.75h.026c.416 0 .755-.334.76-.75l.016-1.054L15.5 15l.546-.763c.395-.553.268-1.322-.285-1.718-.418-.299-.976-.307-1.402-.022z"/>
            <circle cx="18.5" cy="14" r="2"/>
        </g>
        <g fill="#2C6CB7" transform="translate(2 5)">
            <path d="M11.82 7.323L8.03 9.31c-.277.145-.516.353-.698.608L5.09 13.052l-2.478-2.255c-.432-.393-1.1-.362-1.494.07l-.038.044c-.396.486-.343 1.197.12 1.62L4.2 15.266c.356.325.893.35 1.277.059l3.21-2.428L13 11v4.25c0 .414.336.75.75.75s.75-.336.75-.75V10l.109-.348c.325-1.036-.252-2.139-1.288-2.464-.499-.156-1.039-.107-1.501.135z"/>
            <circle cx="17" cy="8" r="2"/>
        </g>
    </g>
</svg>
