<svg xmlns="http://www.w3.org/2000/svg" width="50" height="30" viewBox="0 0 50 30">
    <g fill="none" fill-rule="evenodd">
        <path d="M0 0H50V30H0z"/>
        <g fill="#2C6CB7" transform="translate(26 6)">
            <path d="M14.642 8.268c-.967.35-1.616.548-1.947.593-.345.048-.981.026-1.908-.066-.582-.058-1.159.141-1.58.545l-.248.236-6.054-1.79c-.554-.163-1.136.153-1.3.707l-.008.032c-.154.586.176 1.19.752 1.378l6.306 2.056c.058.019.118.032.18.04 2.266.298 3.793.38 4.582.249.515-.086 1.084-.324 1.708-.715.67-.42 1.03-1.195.917-1.978l-.07-.489c-.078-.546-.584-.926-1.131-.848-.068.01-.134.026-.199.05z"/>
            <path d="M14.55 9.185l3.904-1.249 3.606-2.113c.302-.177.69-.075.867.227.02.034.037.07.05.107.15.417-.022.881-.406 1.102L18.9 9.373l-3.759 1.16c-.398.123-.826-.073-.993-.455-.147-.334.005-.723.339-.87l.064-.023z"/>
            <circle cx="19" cy="8" r="2"/>
        </g>
        <g fill="#2C6CB7" transform="translate(0 5)">
            <path d="M14.764 9.006l-3.403-.086c-.561-.014-1.103.208-1.492.614l-.58.603-6.911.21c-.577.018-1.04.484-1.052 1.061-.012.563.434 1.029.996 1.04l.011.001 8.952.099h.003l2.798.022 1.436-.613.19-.153c.676-.545.782-1.535.237-2.212-.29-.36-.723-.574-1.185-.586z"/>
            <path d="M14.885 10.723l7.359.276c.47.017.848.39.871.86.022.42-.302.779-.723.8h-.064l-7.42-.25c-.472-.016-.849-.4-.856-.873-.006-.443.349-.807.792-.814h.04z"/>
            <circle cx="19" cy="11" r="2"/>
        </g>
    </g>
</svg>
