<svg xmlns="http://www.w3.org/2000/svg" width="50" height="30" viewBox="0 0 50 30">
    <g fill="none" fill-rule="evenodd">
        <path d="M0 0H50V30H0z"/>
        <g fill="#2C6CB7" transform="translate(25 3)">
            <path d="M5.397 10.753c-.7-.363-1.709-1.009-3.029-1.939-.38-.268-.907-.177-1.175.204l-.002.003c-.28.4-.212.949.158 1.27 1.516 1.314 2.711 2.127 3.585 2.438.995.353 3.679.588 8.053.703 1.138-.12 1.954-.257 2.448-.41.493-.153 1.098-.458 1.815-.913.393-.74.111-1.66-.63-2.053-.279-.149-.598-.206-.912-.165l-4.323.574c-3.176.615-5.172.71-5.988.288z"/>
            <circle cx="20" cy="11" r="2"/>
            <path d="M11.292 13.659l.208 1.778H8.217c-.572 0-1.035.464-1.035 1.036 0 .571.463 1.035 1.035 1.035h4.25c.553 0 1-.448 1-1 0-.062-.005-.123-.017-.183L13 13.909l-1.708-.25zM15.77 10.993l6.973-1.152c.324-.054.632.158.698.48.063.308-.135.61-.444.672l-.017.004-7.176 1.238c-.294.05-.573-.147-.624-.44-.004-.026-.007-.051-.008-.077-.01-.357.246-.667.598-.725z"/>
        </g>
        <g fill="#2C6CB7" transform="translate(1 8)">
            <path d="M6.993 9.361l-3.72.18c-.575.027-1.024.504-1.017 1.08.007.562.469 1.013 1.031 1.006H3.3l4.915-.113c.552-.013.99-.47.976-1.023 0-.014 0-.029-.002-.044l-.201-3.015 2.48-.02-.155 1.712.483 1.584c.128.42.527.696.965.668.37-.023.65-.342.627-.711-.002-.025-.005-.05-.009-.073l-.348-1.983.22-2.5c.378-.724.098-1.619-.627-1.998-.228-.118-.482-.176-.74-.167l-4.263.154c-.552.02-.984.484-.964 1.035 0 .015.002.03.003.044l.334 4.184z"/>
            <circle cx="16" cy="5" r="2"/>
        </g>
    </g>
</svg>
