<svg xmlns="http://www.w3.org/2000/svg" width="50" height="30" viewBox="0 0 50 30">
    <g fill="none" fill-rule="evenodd">
        <path d="M0 0H50V30H0z"/>
        <g fill="#2C6CB7" transform="translate(12 4)">
            <path d="M15.96 8.733l-4.587 1.634c-.537.191-.966.602-1.181 1.13l-.102.25-7.636 1.348c-.583.103-.978.65-.892 1.235.085.581.625.983 1.206.9l7.538-1.091c.036-.006.071-.013.106-.022l5.523-1.424.034 1.552c.012.534.442.965.977.977l3.872.091c.362.009.663-.278.672-.64 0-.026 0-.052-.003-.077-.04-.42-.386-.744-.808-.755l-3.133-.083-.024-1.801.41-.546c.575-.767.42-1.856-.348-2.431-.465-.35-1.075-.442-1.624-.247z"/>
            <circle cx="21" cy="10" r="2"/>
        </g>
    </g>
</svg>
