<svg xmlns="http://www.w3.org/2000/svg" width="50" height="30" viewBox="0 0 50 30">
    <g fill="none" fill-rule="evenodd">
        <path d="M0 1H50V31H0z"/>
        <g fill="#2C6CB7" transform="translate(43 4)">
            <path d="M1.057 9.447l.129 5.051c.01.383.129.754.344 1.071l.416.615L.42 22.746c-.106.456.168.914.62 1.035.462.125.943-.117 1.117-.562l.788-2.01c.021-.052.037-.107.049-.162l1.527-7.382c.047-.23.054-.468.019-.701l-.492-3.286c-.052-.35-.286-.647-.615-.78l-1.002-.404c-.512-.206-1.095.041-1.301.554-.052.126-.076.262-.073.4z"/>
            <circle cx="3" cy="6" r="2"/>
            <path d="M2.428 10.441c.301.054.588-.146.642-.447l.001-.008 1.5-9.183c.042-.252-.13-.49-.382-.532-.03-.005-.061-.006-.092-.005-.33.012-.604.254-.658.58L1.967 9.788c-.05.307.155.598.461.652z"/>
        </g>
        <g fill="#2C6CB7" transform="translate(16 8)">
            <path d="M13.82 7.323l-3.493 1.831c-.46.242-.81.653-.972 1.147l-.333 1.014-7.08 2.137c-.49.148-.767.665-.619 1.155l.017.052c.19.513.753.78 1.27.603L15 11v3.25c0 .414.336.75.75.75s.75-.336.75-.75V10l.109-.347c.325-1.037-.252-2.14-1.288-2.465-.499-.156-1.039-.107-1.501.135z"/>
            <circle cx="19" cy="8" r="2"/>
        </g>
        <g fill="#2C6CB7" transform="translate(2 11)">
            <path d="M2.465 4.705L.952 8.003c-.46 1.004-.02 2.191.984 2.652.08.036.162.068.246.094L3 11l1.5-.5-.793 1.632c-.146.302-.02.666.282.813l.014.007c.333.15.726.051.947-.24l3.166-4.159c.334-.44.25-1.066-.19-1.401-.257-.195-.592-.255-.9-.16L7 7 5 8l1.303-3.257c.26-.652-.056-1.391-.708-1.652-.15-.06-.31-.09-.471-.09-1.144 0-2.182.665-2.659 1.704z"/>
            <path d="M4.81 4.145c.336-.077.676.108.794.432l2.715 7.472c.107.292-.044.616-.337.722l-.007.003c-.3.104-.628-.05-.738-.349L4.432 4.844c-.101-.274.039-.578.313-.68.021-.008.043-.014.066-.02z"/>
            <circle cx="8" cy="2" r="2"/>
        </g>
    </g>
</svg>
