<svg xmlns="http://www.w3.org/2000/svg" width="50" height="30" viewBox="0 0 50 30">
    <g fill="none" fill-rule="evenodd">
        <path d="M0 0H50V30H0z"/>
        <g fill="#2C6CB7" transform="translate(12 7)">
            <circle cx="14.5" cy="2" r="2"/>
            <path d="M10.004 1.518c-2.062.038-3.504.126-4.324.263-.887.148-2.216.549-3.99 1.202-.437.161-.705.603-.646 1.065l.213 1.674c1.205 2.911 1.863 5.03 1.975 6.355.092 1.08-.109 2.478-.601 4.193-.2.696.163 1.43.838 1.693.637.248 1.355-.066 1.604-.704l.03-.084c.586-1.898.879-3.44.879-4.627 0-1.44-.432-3.545-1.295-6.316l4.636-.306.109 4.454 1.14 2.713c.159.376.592.553.968.395l.043-.02c.4-.2.583-.67.424-1.087l-.976-2.55-.126-4.321.395-.323c.62-.506.878-1.333.656-2.102l-.045-.159c-.244-.847-1.026-1.424-1.907-1.408zM17 2H26V3H17zM21 3H22V18H21z"/>
            <path d="M17 2l-.5 1.402 2.84-.262c.443-.04.781-.412.781-.856 0-.37-.299-.668-.668-.668-.036 0-.07.002-.106.008L17 2z"/>
        </g>
    </g>
</svg>
