<svg xmlns="http://www.w3.org/2000/svg" width="50" height="30" viewBox="0 0 50 30">
    <g fill="none" fill-rule="evenodd">
        <path d="M0 0H50V30H0z"/>
        <g transform="translate(29 7)">
            <path fill="#2C6CB7" d="M3.348 5.465l-.09 4.292c-.023 1.105.854 2.018 1.958 2.041.156.004.312-.011.465-.044l.313-.068 2.118-.081-.177 3.337c-.023.424.298.788.721.819.425.031.798-.28.844-.704l.377-3.52c.118-1.074-.656-2.04-1.73-2.159l-.074-.006-1.805-.13.11-1.445V5.993c.001-.832-.672-1.506-1.504-1.507h-.526c-.544 0-.989.435-1 .98z"/>
            <circle cx="5" cy="2" r="2" fill="#2C6CB7"/>
            <g stroke="#2C6CB7">
                <path d="M0 0L1.338 6.231.893 10.494M1.338 6.231L5.407 6.231 6.294 10.494M1.162 9.427L5.759 9.427" transform="translate(.97 5.323)"/>
            </g>
            <path fill="#2C6CB7" d="M9.056 9.5l4.411.17c.377.015.675.324.675.7 0 .374-.303.676-.675.676H10.1c-.104-.391-.216-.677-.337-.856-.122-.18-.357-.41-.707-.69z"/>
        </g>
        <g transform="translate(9 7)">
            <path fill="#2C6CB7" d="M3.348 5.465l-.09 4.292c-.023 1.105.854 2.018 1.958 2.041.156.004.312-.011.465-.044l.313-.068 2.118-.081-.177 3.337c-.023.424.298.788.721.819.43.032.812-.274.876-.7l.526-3.51-.012-1.26c-.005-.541-.44-.98-.98-.99l-2.798-.059.11-1.445V5.993c.001-.832-.672-1.506-1.504-1.507h-.526c-.544 0-.989.435-1 .98z"/>
            <circle cx="5" cy="2" r="2" fill="#2C6CB7"/>
            <g stroke="#2C6CB7">
                <path d="M0 0L1.338 6.231.893 10.494M1.338 6.231L5.407 6.231 6.294 10.494M1.162 9.427L5.759 9.427" transform="translate(.97 5.323)"/>
            </g>
        </g>
    </g>
</svg>
