<svg xmlns="http://www.w3.org/2000/svg" width="50" height="30" viewBox="0 0 50 30">
    <g fill="none" fill-rule="evenodd">
        <path d="M0 0H50V30H0z"/>
        <g>
            <path fill="#F7BC94" d="M0 10.342L0.459 2.949 2.297 0.831 5.245 0 7.613 2.949 7.613 9.465 6.335 9.465 2.297 5.772 2.297 10.384z" transform="translate(5 9.322)"/>
            <path stroke="#000" stroke-linecap="round" stroke-width=".5" d="M0 10.384l.439-7.097c.013-.22.098-.428.242-.594l1.42-1.636c.128-.148.296-.254.484-.307L4.61.18c.386-.11.8.023 1.05.336l1.734 2.159c.143.177.22.398.22.626v4.403h0L6.274 6.29l-.017-1.962M4.904 1.717L4.89 5.049M5.589 3.249L5.576 5.605" transform="translate(5 9.322)"/>
            <path stroke="#000" stroke-linecap="round" stroke-width=".5" d="M2.297 10.384V6.065L1.7 5.497c-.201-.192-.314-.46-.31-.738l.008-.608h0M2.34 6.065l3.814 3.06c.253.204.589.272.9.182l.106-.03c.349-.1.575-.436.537-.796l-.087-.809h0L3.825 4.125" transform="translate(5 9.322)"/>
        </g>
        <g>
            <path fill="#F7BC94" d="M.13 1.063l.142 3.572 1.57 1.883 1.305 1.048 1.339.934 1.005 2.728 2.586-.008c.035-1.513.019-2.63-.046-3.35-.066-.722-.218-1.45-.457-2.187L5.38 4.837l-1.925-1.79L3.408.532 2.692.499l-.465 1.928-.086-1.365C2.106.505 1.643.07 1.085.07.558.07.13.498.13 1.025v.038z" transform="translate(21 9)"/>
            <path stroke="#000" stroke-linecap="round" stroke-width=".5" d="M5.55 11.235L4.717 8.91c-.07-.195-.198-.363-.368-.482l-1.157-.81c-.026-.019-.05-.038-.075-.059l-1.244-1.06c-.034-.029-.065-.06-.095-.092L.526 5.014C.36 4.83.269 4.592.269 4.344V.516c0-.168.136-.304.304-.304.051 0 .102.014.147.038.278.154.45.447.45.765v2.107h0l.654.627" transform="translate(21 9)"/>
            <path stroke="#000" stroke-linecap="round" stroke-width=".5" d="M1.17 3.121V.55c0-.257.21-.466.467-.466l.05.003c.294.032.518.278.522.574l.022 1.548h0l.276.371v1.169M2.507 3.121V.983c0-.267.217-.484.484-.484.268 0 .485.217.485.484v2.138h0l1.587 1.503L7.5 5.691l.598 2.125v3.42" transform="translate(21 9)"/>
            <path stroke="#000" stroke-linecap="round" stroke-width=".5" d="M4.808 7.686L2.909 5.867l-.534-.465c-.2-.175-.22-.478-.046-.679l.029-.03c.22-.213.56-.241.813-.069L5.087 5.93h0l.547.002" transform="translate(21 9)"/>
        </g>
        <g>
            <path fill="#F7BC94" d="M0 11.326L0.912 8.663 0.456 6.925 0.649 3.019 1.47 0.039 5.791 3.266 5.523 4.498 5.523 5.125 7.665 4.831 8.647 3.593 9.267 4.498 8.417 5.554 9.267 6.739 8.97 7.953 8.139 8.265 8.139 9.66 7.35 9.66 7.35 11.783 6.097 12.605 3.268 11.326 2.313 12.876 2.48 13.722z" transform="translate(37 8)"/>
            <path stroke="#000" stroke-linecap="round" stroke-width=".5" d="M0 11.326l.7-2.183L4.628 5.21l1.175-.357h1.725l1.738 1.7v.536c0 .552-.448 1-1 1h-.054 0v.752c0 .453-.367.82-.82.82L7.35 9.66h0v1.574c0 .242-.087.475-.246.657l-.324.371c-.19.218-.464.343-.753.343H5.69c-.237 0-.467-.084-.647-.238l-.613-.52c-.181-.154-.41-.238-.648-.238h-.68 0l-.79 1.267v.678" transform="translate(37 8)"/>
            <path stroke="#000" stroke-linecap="round" stroke-width=".5" d="M3.054 11.672l1.58-2.61.456-2.182.4-2.686.133-.262c.11-.215.117-.467.02-.688-.093-.212-.302-.349-.533-.349h-.261 0l-.967 1.102M4.849 2.895c0-.381-.31-.69-.69-.69h-.07 0L3.05 3.265" transform="translate(37 8)"/>
            <path stroke="#000" stroke-linecap="round" stroke-width=".5" d="M3.95 2.36c0-.394-.32-.714-.715-.714H3.05h0l-.77 1.09M3.115 1.377l-.005-.062C3.076.882 2.715.547 2.28.547h0l-.858 2.348" transform="translate(37 8)"/>
            <path stroke="#000" stroke-linecap="round" stroke-width=".5" d="M2.073.547l-.21-.252C1.714.113 1.477.03 1.246.078 1.02.124.85.308.817.534L.434 3.266h0L.404 7.21l.403 1.852M7.679 5.054l.776-1.17c.11-.166.326-.222.502-.13.178.092.261.301.196.49l-.506 1.461h0M8.257 8.054L7.679 7.647 7.679 6.88M7.468 9.5L6.877 9.062 6.877 8.499" transform="translate(37 8)"/>
        </g>
    </g>
</svg>
