<svg xmlns="http://www.w3.org/2000/svg" width="50" height="30" viewBox="0 0 50 30">
    <g fill="none" fill-rule="evenodd">
        <path d="M0 0H50V30H0z"/>
        <g transform="translate(18 4)">
            <circle cx="7" cy="4" r="2" fill="#2C6CB7"/>
            <path fill="#2C6CB7" d="M4.5 8.19v4.61c0 .109-.018.217-.053.32l-2.826 8.346c-.177.522.103 1.088.625 1.265.035.012.07.022.105.03.62.136 1.242-.215 1.446-.815l2.068-6.078c.204-.601.77-1.006 1.405-1.006s1.2.404 1.406 1.006l2.153 6.303c.173.507.724.778 1.231.605.032-.01.062-.023.093-.037.556-.256.83-.89.638-1.47l-2.694-8.152c-.034-.101-.05-.207-.05-.314V8.178c0-.315.148-.613.401-.801l2.24-1.672c.249-.186.397-.476.402-.786l.034-2.203c.003-.188-.047-.373-.144-.534L12.073.687c-.196-.324-.617-.427-.94-.23l-.028.017c-.337.227-.443.675-.244 1.029l.711 1.264c.084.15.128.318.128.49v.815c0 .336-.17.65-.45.835L9.384 6.132c-.156.103-.337.16-.524.164l-3.089.078c-.21.006-.416-.055-.589-.173L3.292 4.909c-.273-.186-.437-.496-.437-.826v-.79c0-.195.057-.385.163-.547l.865-1.326c.197-.303.112-.708-.19-.906L3.681.508C3.359.305 2.936.376 2.695.67L1.49 2.152c-.146.179-.225.402-.225.632v2.06c0 .322.155.625.417.813l2.402 1.72c.262.188.417.49.417.813z"/>
            <path stroke="#2C6CB7" stroke-linecap="round" d="M.5 1.5C5.156-.755 9.742-.26 14.26 2.986"/>
        </g>
    </g>
</svg>
