<svg xmlns="http://www.w3.org/2000/svg" width="44" height="26" viewBox="0 0 44 26">
    <g fill="none" fill-rule="evenodd">
        <path fill="#F3F7FE" stroke="#2C6CB7" d="M34.738.5H9.262L.608 13l8.654 12.5h25.476L43.392 13 34.738.5z"/>
        <path fill="#2C6CB7" fill-rule="nonzero" d="M22.21 16.37c.8 0 1.85-.12 2.71-.96l-.68-.98c-.57.59-1.31.75-1.98.75-.9 0-1.71-.57-1.71-2.1v-.74c0-1.79.86-2.22 1.72-2.22.65 0 1.2.1 1.79.6l.69-.98c-.73-.59-1.46-.8-2.48-.8-1.67 0-3.01.95-3.01 3.11v1.29c0 2.15 1.38 3.03 2.95 3.03z"/>
    </g>
</svg>
