<svg xmlns="http://www.w3.org/2000/svg" width="44" height="26" viewBox="0 0 44 26">
    <g fill="none" fill-rule="evenodd">
        <path fill="#F17D1F" d="M9 0L35 0 44 13 35 26 9 26 0 13z"/>
        <path fill="#FFF" fill-rule="nonzero" d="M16.565 16.26v-6.09c.17.52.27.84.37 1.09l1.49 3.8h1.02l1.51-3.8c.09-.26.19-.49.34-1.09v6.09h1.21V9.05h-1.84l-1.7 4.48-1.77-4.48h-1.82v7.21h1.19zm9.5 2.23c1.8 0 2.62-.75 2.62-2.28v-5.46h-1.21v.48h-.01c-.17-.24-.63-.6-1.49-.6-1.33 0-2.2.91-2.2 2.39v.87c0 1.49.7 2.35 2.11 2.35.66 0 1.25-.19 1.54-.72h.02v.68c0 .81-.47 1.18-1.36 1.18-.52 0-1.12-.28-1.34-.47l-.57.98c.45.35 1.2.6 1.89.6zm.07-3.32c-.73 0-1.12-.54-1.12-1.47v-.52c0-.92.37-1.47 1.17-1.47.87 0 1.26.58 1.26 1.09v1.02c0 .75-.48 1.35-1.31 1.35z"/>
    </g>
</svg>
