<svg xmlns="http://www.w3.org/2000/svg" width="50" height="30" viewBox="0 0 50 30">
    <g fill="none" fill-rule="evenodd">
        <path d="M0 0H50V30H0z"/>
        <g fill="#2C6CB7" transform="translate(31 4)">
            <path d="M7.301 14.923c1.475-.072 2.566-.144 3.275-.216.428-.043.9-.03 1.418.038 1.095.145 2.1-.625 2.246-1.72.006-.048.011-.097.014-.147.155-2.676.4-4.53.733-5.56.358-1.104.945-2.47 1.764-4.095.245-.488.049-1.082-.438-1.327l-.075-.033c-.568-.23-1.216.02-1.484.571-.956 1.97-1.576 3.433-1.858 4.386-.328 1.104-.646 2.76-.955 4.97l-6.115.101c-.606.01-1.089.51-1.079 1.116.003.156.04.311.107.453.445.937 1.41 1.514 2.447 1.463z"/>
            <path d="M4.88 12.556c.075-.28.362-.446.642-.371.045.012.088.03.129.053l2.76 1.61 5.061-.028c.363-.002.659.29.66.653v.037c-.02.39-.34.696-.73.7l-5.195.042-2.91-1.687c-.35-.204-.521-.617-.417-1.009z"/>
            <circle cx="2" cy="13" r="2"/>
        </g>
        <g fill="#2C6CB7" transform="translate(3 9)">
            <path d="M7.315 9.954c1.55-.054 2.637-.136 3.261-.247.734-.13 1.574-.43 2.52-.9.27-.134.567-.205.869-.208l6.55-.07c.477-.005.86-.395.854-.872 0-.02 0-.038-.002-.057-.04-.518-.475-.916-.994-.91l-10.869.117-3.678.077c-.608.013-1.092.516-1.079 1.125.003.156.04.31.107.45.449.945 1.416 1.532 2.46 1.495z"/>
            <path d="M4.88 7.556c.075-.28.362-.446.642-.371.045.012.088.03.129.053l2.76 1.61 5.061-.028c.363-.002.659.29.66.653v.037c-.02.39-.34.696-.73.7l-5.195.042-2.91-1.687c-.35-.204-.521-.617-.417-1.009z"/>
            <circle cx="2" cy="8" r="2"/>
        </g>
    </g>
</svg>
