<svg xmlns="http://www.w3.org/2000/svg" xmlns:xlink="http://www.w3.org/1999/xlink" width="160" height="88" viewBox="0 0 160 88">
    <defs>
        <path id="prefix__a" d="M0 0.414L5.315 0.414 5.315 5.75 0 5.75z"/>
    </defs>
    <g fill="none" fill-rule="evenodd">
        <g transform="translate(20 20) translate(0 .046)">
            <mask id="prefix__b" fill="#fff">
                <use xlink:href="#prefix__a"/>
            </mask>
            <path fill="#D0363A" d="M5.315 3.081c0 1.474-1.19 2.669-2.657 2.669S0 4.555 0 3.08C0 1.608 1.19.413 2.658.413c1.466 0 2.657 1.195 2.657 2.668" mask="url(#prefix__b)"/>
        </g>
        <path fill="#7DA7D8" d="M17.418 9.025v16.972L5.993 10.28c-.505-.762-1.337-1.255-2.12-1.255H2.841c-1.184 0-2.148 1.186-2.148 2.644V30.36h3.243V13.388l11.41 15.725c.505.759 1.335 1.248 2.114 1.248h1.054c1.192 0 2.126-1.175 2.126-2.673V9.025h-3.222z" transform="translate(20 20)"/>
        <path fill="#808184" d="M25.163 16.476h2.46v8.93c0 2.02.894 3.017 2.682 3.017 1.838 0 3.03-1.147 3.13-2.818v-9.13h2.46v13.72h-2.013l-.397-1.372h-.1c-.521.648-1.714 1.645-3.825 1.645-2.832 0-4.347-1.496-4.397-4.664v-9.328zM44.526 28.124c2.683 0 4.099-1.571 4.099-5.088 0-3.542-1.565-4.74-3.254-4.74-1.416 0-2.335.849-2.807 1.647V27.8c.571.225 1.465.325 1.962.325m.199 2.095c-.72 0-1.466-.075-2.137-.2v5.013h-2.434V16.476h1.814l.521 1.322h.1c.62-.798 1.738-1.571 3.477-1.571 3.08 0 5.068 2.145 5.068 6.534 0 4.889-2.658 7.458-6.409 7.458M65.354 20.766v9.428h-2.459v-8.979c0-1.646-.82-2.769-2.509-2.769-1.59 0-2.782 1.048-3.254 2.145v9.603h-2.46v-18.93h2.46v6.684h.1c.497-.574 1.763-1.671 3.85-1.671 2.633 0 4.272 1.62 4.272 4.489M68.77 33.013c.347.149.894.274 1.34.274 1.566 0 2.46-.873 2.907-2.768l-4.993-14.043h2.708l2.012 6.11c.72 2.196 1.142 3.742 1.44 4.94h.1c.198-1.073.497-2.395 1.266-4.94l1.888-6.11h2.534l-4.744 14.591c-.82 2.544-2.186 4.365-5.117 4.365-.746 0-1.416-.15-1.764-.3l.423-2.12zM88.132 18.397c-2.41 0-3.975 1.62-3.975 4.963 0 3.592 1.565 4.54 3.379 4.54 1.018 0 2.012-.425 2.608-1.173v-7.981c-.546-.225-1.217-.35-2.012-.35zm4.446 11.697c0 3.642-2.334 5.438-5.812 5.438-2.807 0-4.174-.923-4.794-1.572l1.416-1.92c.67.773 1.838 1.396 3.551 1.396 2.286 0 3.23-1.047 3.23-3.367v-1.097h-.1c-.447.399-1.54.998-3.13.998-2.831 0-5.266-1.647-5.266-6.41 0-4.215 2.162-7.234 6.658-7.234 1.937 0 3.304.3 4.247.749v13.02zM97.696 22.213h6.235c.025-.4.025-.624.025-.748-.025-2.07-.92-3.218-2.906-3.218-1.74 0-3.23 1.147-3.354 3.966zm8.197 6.859c-.968.748-2.36 1.322-4.52 1.322-4.024 0-6.16-2.12-6.16-7.109 0-4.813 2.682-7.059 5.986-7.059s5.117 2.145 5.117 5.438c0 .673-.025 1.471-.124 2.394h-8.545c.149 3.019 1.416 4.29 4.024 4.29 1.39 0 2.558-.598 3.13-1.122l1.092 1.846zM119.78 30.194h-2.459v-8.93c0-1.87-.919-2.942-2.633-2.942-1.515 0-2.683.972-3.13 2.22v9.652H109.1V16.476h1.888l.497 1.397h.1c.52-.649 1.912-1.696 3.825-1.696 2.707 0 4.322 1.496 4.371 4.54v9.477z" transform="translate(20 20)"/>
        <path fill="#A6A8AB" d="M17.765 40.11h-.825v2.239h.825c.759 0 1.137-.374 1.137-1.124 0-.356-.085-.623-.256-.801-.196-.208-.49-.313-.88-.313m2.302 1.05c0 .614-.196 1.107-.587 1.478-.392.372-.88.557-1.468.557H16.94v2.432h-1.046v-6.374h1.688c.74 0 1.278.102 1.615.304.58.35.87.884.87 1.603M23.774 40.912l-.312.94c-.116-.043-.211-.065-.285-.065-.207 0-.393.068-.555.203-.161.135-.267.298-.316.488v3.15h-1.01v-3.295c0-.523-.054-.941-.164-1.255l.927-.24c.115.225.174.473.174.747.36-.498.755-.746 1.183-.746.135 0 .254.024.358.073M27.305 42.828c0-.374-.075-.67-.224-.884-.15-.215-.354-.323-.61-.323-.587 0-.88.403-.88 1.207h1.714zm1.046.746h-2.77v.074c0 .884.382 1.326 1.146 1.326.416 0 .802-.153 1.157-.46l.394.617c-.483.41-1.04.617-1.67.617-.654 0-1.173-.22-1.56-.659-.384-.439-.577-1.033-.577-1.782 0-.774.193-1.382.578-1.824.367-.417.84-.626 1.422-.626.501 0 .926.16 1.275.479.404.368.605 1.044.605 2.026v.212zM33.02 45.13c-.41.412-.905.618-1.486.618-.63 0-1.116-.21-1.458-.631-.343-.42-.514-1.009-.514-1.764 0-.798.211-1.428.633-1.888.38-.412.85-.617 1.413-.617.495 0 .923.168 1.284.507l-.505.671c-.263-.24-.523-.359-.78-.359-.336 0-.58.157-.733.47-.129.264-.193.697-.193 1.299 0 .62.104 1.044.312 1.271.159.178.364.267.615.267.317 0 .63-.153.935-.46l.477.617zM36.589 43.436c-.08-.006-.141-.01-.184-.01-.49 0-.83.071-1.023.212-.192.142-.289.366-.289.673 0 .479.215.718.642.718.337 0 .615-.162.835-.488l.019-1.105zm1.385 1.74l-.523.645c-.312-.122-.523-.331-.633-.626-.337.38-.762.571-1.275.571-.514 0-.902-.132-1.165-.396-.251-.245-.376-.58-.376-1.004 0-1.08.764-1.62 2.293-1.62h.312v-.25c0-.276-.034-.472-.1-.59-.093-.152-.273-.23-.542-.23-.416 0-.878.179-1.385.535l-.45-.728c.666-.423 1.324-.635 1.972-.635.734 0 1.205.258 1.413.773.055.142.08.522.073 1.143l-.018 1.335c-.006.295.006.497.037.608.055.178.177.335.367.47zM41.89 40.912l-.311.94c-.117-.043-.211-.065-.285-.065-.208 0-.393.068-.555.203-.162.135-.267.298-.316.488v3.15h-1.01v-3.295c0-.523-.054-.941-.164-1.255l.926-.24c.116.225.174.473.174.747.361-.498.756-.746 1.184-.746.135 0 .254.024.358.073M45.422 42.828c0-.374-.075-.67-.225-.884-.15-.215-.353-.323-.61-.323-.586 0-.88.403-.88 1.207h1.715zm1.046.746h-2.77v.074c0 .884.382 1.326 1.146 1.326.416 0 .801-.153 1.156-.46l.395.617c-.483.41-1.04.617-1.67.617-.654 0-1.174-.22-1.56-.659-.384-.439-.577-1.033-.577-1.782 0-.774.193-1.382.578-1.824.367-.417.84-.626 1.422-.626.5 0 .926.16 1.275.479.404.368.605 1.044.605 2.026v.212zM49.266 45.306c0 .374-.113.712-.34 1.013-.226.3-.517.512-.871.635l-.367-.46c.184-.062.333-.154.45-.276.116-.123.174-.25.174-.378 0-.074-.068-.138-.202-.194-.263-.104-.395-.31-.395-.617 0-.208.071-.383.212-.525.14-.14.312-.212.513-.212.239 0 .436.096.592.286.156.19.234.433.234.728M55.293 40.11h-.826v2.239h.826c.757 0 1.137-.374 1.137-1.124 0-.356-.085-.623-.257-.801-.196-.208-.49-.313-.88-.313m2.302 1.05c0 .614-.195 1.107-.587 1.478-.391.372-.88.557-1.467.557h-1.074v2.432H53.42v-6.374h1.689c.74 0 1.277.102 1.614.304.58.35.871.884.871 1.603M61.292 42.828c0-.374-.075-.67-.225-.884-.15-.215-.353-.323-.61-.323-.587 0-.88.403-.88 1.207h1.715zm1.046.746h-2.77v.074c0 .884.381 1.326 1.146 1.326.416 0 .8-.153 1.156-.46l.394.617c-.483.41-1.04.617-1.67.617-.654 0-1.173-.22-1.559-.659-.385-.439-.578-1.033-.578-1.782 0-.774.193-1.382.578-1.824.368-.417.841-.626 1.422-.626.501 0 .926.16 1.275.479.404.368.606 1.044.606 2.026v.212zM66.319 40.912l-.312.94c-.117-.043-.211-.065-.284-.065-.208 0-.393.068-.556.203-.162.135-.268.298-.316.488v3.15h-1.01v-3.295c0-.523-.054-.941-.164-1.255l.926-.24c.116.225.175.473.175.747.36-.498.755-.746 1.183-.746.134 0 .253.024.358.073M70.611 44.173c0 .472-.174.855-.523 1.147-.348.291-.801.437-1.357.437-.569 0-1.162-.172-1.78-.516l.358-.728c.562.326 1.064.489 1.504.489.22 0 .4-.062.541-.185.14-.122.212-.28.212-.47 0-.33-.251-.549-.753-.654l-.56-.12c-.348-.073-.62-.223-.815-.45-.196-.227-.294-.504-.294-.83 0-.435.159-.791.477-1.068.318-.276.734-.414 1.247-.414.52 0 1.03.135 1.532.405l-.33.7c-.428-.227-.807-.34-1.137-.34-.214 0-.386.054-.514.165-.129.11-.193.255-.193.433 0 .264.208.448.624.552l.578.148c.789.203 1.183.636 1.183 1.299M73.803 41.621c-.317 0-.55.13-.697.387-.147.258-.22.67-.22 1.234 0 .651.083 1.112.248 1.382.146.245.379.369.697.369.617 0 .926-.553.926-1.658 0-1.143-.317-1.714-.954-1.714m-.01-.764c.65 0 1.157.223 1.524.668.367.445.55 1.042.55 1.791 0 .75-.184 1.342-.554 1.778-.37.436-.87.654-1.5.654s-1.128-.22-1.496-.659c-.367-.439-.55-1.033-.55-1.782 0-.743.183-1.337.55-1.782.368-.445.86-.668 1.477-.668M80.94 45.628h-1v-3.095c0-.313-.04-.526-.119-.64-.08-.113-.217-.17-.413-.17-.33 0-.67.175-1.018.524v3.381h-.99v-3.427c0-.435-.058-.804-.175-1.105l.918-.258c.11.21.165.43.165.663.501-.442.975-.663 1.421-.663.367 0 .661.112.881.333.22.222.33.543.33.962v3.495zM84.995 43.436c-.08-.006-.141-.01-.183-.01-.49 0-.83.071-1.024.212-.192.142-.289.366-.289.673 0 .479.214.718.643.718.336 0 .614-.162.835-.488l.018-1.105zm1.385 1.74l-.523.645c-.312-.122-.523-.331-.633-.626-.336.38-.761.571-1.275.571-.514 0-.902-.132-1.165-.396-.251-.245-.376-.58-.376-1.004 0-1.08.764-1.62 2.293-1.62h.312v-.25c0-.276-.033-.472-.101-.59-.092-.152-.272-.23-.541-.23-.416 0-.878.179-1.385.535l-.45-.728c.667-.423 1.324-.635 1.972-.635.735 0 1.205.258 1.413.773.055.142.08.522.074 1.143l-.019 1.335c-.006.295.006.497.037.608.055.178.177.335.367.47zM89.416 45.619c-.183.073-.385.11-.605.11-.68 0-1.018-.439-1.018-1.317v-3.97c0-.54-.031-.994-.092-1.363l1.036-.23c.055.215.083.642.083 1.28v3.952c0 .454.037.736.11.847.074.11.18.132.321.064l.165.627zM91.82 45.628H90.8v-4.587l1.019-.184v4.771zm-.514-5.351c-.183 0-.338-.066-.464-.198-.125-.132-.187-.29-.187-.475 0-.19.064-.351.193-.483.128-.132.287-.199.476-.199.184 0 .34.067.468.199.129.132.193.293.193.483 0 .184-.066.343-.197.475-.132.132-.292.198-.482.198zM96.755 44.919L96.461 45.628 93.186 45.628 93.186 44.956 95.516 41.686 93.37 41.686 93.37 40.968 96.653 40.968 96.653 41.686 94.452 44.919zM100.59 42.828c0-.374-.076-.67-.226-.884-.15-.215-.353-.323-.61-.323-.586 0-.88.403-.88 1.207h1.715zm1.045.746h-2.77v.074c0 .884.381 1.326 1.146 1.326.416 0 .801-.153 1.156-.46l.395.617c-.484.41-1.04.617-1.67.617-.654 0-1.174-.22-1.56-.659-.385-.439-.577-1.033-.577-1.782 0-.774.192-1.382.577-1.824.367-.417.841-.626 1.422-.626.501 0 .927.16 1.275.479.404.368.606 1.044.606 2.026v.212zM105.735 44.44v-2.367c-.233-.252-.514-.378-.844-.378-.624 0-.936.547-.936 1.64 0 .54.065.927.193 1.16.146.258.404.387.77.387.367 0 .64-.147.817-.442m1.147 1.188h-.927c-.03-.067-.058-.187-.082-.36-.306.308-.686.461-1.138.461-.587 0-1.05-.215-1.39-.644-.34-.43-.509-1.01-.509-1.741 0-.73.18-1.324.541-1.778.361-.454.823-.681 1.385-.681.392 0 .725.14 1 .423-.018-.258-.027-.512-.027-.764V38.84l1 .156v5.011c0 .835.049 1.376.147 1.62" transform="translate(20 20)"/>
    </g>
</svg>
