<svg xmlns="http://www.w3.org/2000/svg" width="50" height="30" viewBox="0 0 50 30">
    <g fill="none" fill-rule="evenodd">
        <path d="M0 0H50V30H0z"/>
        <g fill="#2C6CB7" transform="translate(29 9)">
            <path d="M5.124 8.625l2.793 2.315c.851.704 2.112.586 2.817-.264.056-.068.107-.14.154-.214l.455-.725 1.905-2.578 3.055 3.564c.259.301.712.338 1.016.082.312-.263.376-.719.148-1.057L13.93 4.49c-.298-.442-.89-.573-1.346-.298l-1.07.645-2.552 2.19-2.81-2.101c-.561-.42-1.358-.306-1.778.256-.097.13-.168.276-.21.432-.296 1.104.079 2.28.959 3.01z"/>
            <path d="M5.936 6.863c-.27-.297-.252-.755.04-1.03l4.887-4.605c.27-.255.697-.242.952.028.018.02.036.04.052.062.257.349.21.834-.106 1.128l-4.81 4.46c-.29.27-.742.252-1.01-.037l-.005-.006z"/>
            <circle cx="2" cy="4" r="2"/>
        </g>
        <g fill="#2C6CB7" transform="translate(3 11)">
            <path d="M7.292 9h3.79c.736 0 1.413-.405 1.762-1.054l2.035-3.791 3.004 4.036c.291.391.826.507 1.253.271.357-.198.486-.647.289-1.004-.017-.03-.036-.06-.057-.088l-3.681-4.878c-.314-.416-.896-.521-1.336-.24l-1.823 1.162-3.024 2.393-3.678.077c-.608.013-1.092.516-1.079 1.125.003.156.04.31.107.45C5.3 8.402 6.25 9 7.292 9z"/>
            <path d="M6.564 7.236c-.327-.187-.44-.604-.251-.93l.002-.005 2.989-5.103c.195-.334.624-.446.957-.25l.024.014c.341.219.447.67.238 1.017L7.513 6.99c-.196.327-.619.437-.95.246z"/>
            <circle cx="2" cy="7" r="2"/>
        </g>
    </g>
</svg>
