<svg xmlns="http://www.w3.org/2000/svg" width="44" height="26" viewBox="0 0 44 26">
    <g fill="none" fill-rule="evenodd">
        <path fill="#F3F7FE" stroke="#2C6CB7" d="M34.738.5H9.262L.608 13l8.654 12.5h25.476L43.392 13 34.738.5z"/>
        <path fill="#2C6CB7" fill-rule="nonzero" d="M19.515 16.26c1.56 0 2.29-.72 2.29-1.9v-.25c0-1-.59-1.51-1.47-1.64.86-.21 1.14-.82 1.14-1.45v-.21c0-1.18-.74-1.76-2.27-1.76h-2.8v7.21h3.11zm-.746-4.27h-1.094v-1.88h.98c1.08 0 1.52.16 1.52.77v.18c0 .853-.503.924-1.406.93zm.066 3.21h-1.16v-2.17h.97c1.37 0 1.85.22 1.85.97v.22c0 .85-.53.98-1.66.98zm6.53 1.17c1.6 0 2.56-1.02 2.56-2.36v-.2c0-1.4-.85-2.32-2.25-2.32-.62 0-1.27.22-1.62.63.09-1.54.77-2.02 1.51-2.02.59 0 1.08.14 1.53.4l.47-1.06c-.54-.36-1.27-.5-1.92-.5-1.57 0-2.86.74-2.86 3.92v.46c0 1.85.74 3.05 2.58 3.05zm-.03-1.16c-.82 0-1.26-.46-1.26-1.24v-.15c0-.66.39-1.21 1.31-1.21.88 0 1.28.4 1.28 1.24v.11c0 .8-.45 1.25-1.33 1.25z"/>
    </g>
</svg>
