<svg xmlns="http://www.w3.org/2000/svg" width="50" height="30" viewBox="0 0 50 30">
    <g fill="none" fill-rule="evenodd">
        <path d="M0 0H50V30H0z"/>
        <g fill="#2C6CB7" transform="translate(30 4)">
            <path d="M3.774 9.574l-.481 5.377c-.099 1.1.713 2.072 1.813 2.17.086.009.173.01.259.007L8.551 17l.266 4.02c.037.56.503.997 1.066.997.565 0 1.035-.433 1.08-.996l.422-5.258c.043-.533-.342-1.006-.873-1.072l-3.471-.432.119-2.156-.295-2.022c-.116-.8-.796-1.397-1.605-1.41l-.474-.008c-.524-.008-.965.39-1.012.911z"/>
            <circle cx="6" cy="6" r="2"/>
            <path d="M0 22v-1h2V0h1v22H0z"/>
        </g>
        <g fill="#2C6CB7" transform="translate(10 4)">
            <path d="M3.442 8.414l.02 4.344c0 .176.024.35.07.52L4.552 17l-.441 4.006c-.055.492.3.934.792.989.032.003.065.005.098.005.577 0 1.07-.417 1.164-.986l.822-4.932c.01-.055.014-.11.014-.165V9c.279-.929-.248-1.908-1.177-2.187-.049-.014-.098-.027-.148-.037l-.183-.038c-.921-.191-1.823.4-2.014 1.322-.024.117-.036.235-.036.354z"/>
            <circle cx="6" cy="4" r="2"/>
            <path d="M0 22v-1h2V0h1v22H0z"/>
        </g>
    </g>
</svg>
