<svg xmlns="http://www.w3.org/2000/svg" width="60" height="35" viewBox="0 0 60 35">
    <g fill="none" fill-rule="evenodd">
        <path fill="#F3F7FE" stroke="#2C6CB7" d="M47.467.5H12.533L.61 17.5l11.922 17h34.934l11.922-17L47.467.5z"/>
        <path fill="#2C6CB7" fill-rule="nonzero" d="M29.618 21.888v-1.48h-5.645l5.386-6.92v-1.305h-7.214v1.48h4.991l-5.318 6.812v1.413h7.8zm3.177 0V17.5c0-1.467 1.064-1.71 1.623-1.71.968 0 1.432.525 1.432 1.63v4.468h1.718v-4.832c0-1.993-1.268-2.746-2.618-2.746-.886 0-1.69.269-2.223 1.01H32.7v-.849h-1.623v7.417h1.718z"/>
    </g>
</svg>
