<svg xmlns="http://www.w3.org/2000/svg" xmlns:xlink="http://www.w3.org/1999/xlink" width="114" height="50" viewBox="0 0 114 50">
    <defs>
        <path id="prefix__a" d="M0 0.379L4.872 0.379 4.872 5.27 0 5.27z"/>
    </defs>
    <g fill="none" fill-rule="evenodd">
        <path d="M0 0H114V50H0z"/>
        <g>
            <g transform="translate(2 3) translate(0 .042)">
                <mask id="prefix__b" fill="#fff">
                    <use xlink:href="#prefix__a"/>
                </mask>
                <path fill="#D0363A" d="M4.872 2.825c0 1.35-1.091 2.445-2.435 2.445C1.092 5.27 0 4.176 0 2.825 0 1.474 1.092.379 2.437.379c1.344 0 2.435 1.095 2.435 2.446" mask="url(#prefix__b)"/>
            </g>
            <path fill="#7DA7D8" d="M15.966 8.272V23.83L5.493 9.424c-.462-.7-1.225-1.152-1.943-1.152h-.946C1.52 8.272.635 9.36.635 10.696v17.135h2.973V12.273l10.459 14.414c.464.695 1.223 1.144 1.938 1.144h.966c1.093 0 1.949-1.077 1.949-2.45V8.271h-2.954z" transform="translate(2 3)"/>
            <path fill="#808184" d="M23.066 15.103h2.255v8.185c0 1.852.82 2.767 2.459 2.767 1.685 0 2.778-1.052 2.869-2.584v-8.368h2.254v12.575H31.06l-.365-1.257h-.09c-.479.594-1.572 1.508-3.507 1.508-2.596 0-3.985-1.371-4.03-4.275v-8.551zM40.816 25.78c2.459 0 3.757-1.44 3.757-4.664 0-3.247-1.435-4.344-2.983-4.344-1.298 0-2.14.777-2.573 1.51v7.2c.524.207 1.343.298 1.799.298m.182 1.92c-.66 0-1.344-.068-1.959-.182v4.595h-2.23v-17.01h1.661l.478 1.212h.091c.57-.732 1.594-1.44 3.188-1.44 2.824 0 4.645 1.966 4.645 5.99 0 4.48-2.436 6.836-5.874 6.836M59.908 19.036v8.642h-2.254v-8.23c0-1.51-.752-2.539-2.3-2.539-1.457 0-2.55.96-2.983 1.966v8.803h-2.254V10.325h2.254v6.127h.091c.456-.526 1.617-1.532 3.53-1.532 2.413 0 3.916 1.486 3.916 4.116M63.039 30.262c.318.137.82.25 1.229.25 1.435 0 2.254-.8 2.664-2.537l-4.576-12.872h2.482l1.844 5.602c.66 2.012 1.047 3.43 1.32 4.526h.092c.181-.983.455-2.194 1.16-4.526l1.731-5.602h2.323l-4.349 13.375c-.752 2.332-2.004 4.001-4.691 4.001-.683 0-1.298-.137-1.616-.274l.387-1.943zM80.788 16.864c-2.21 0-3.644 1.486-3.644 4.55 0 3.292 1.435 4.16 3.097 4.16.934 0 1.845-.388 2.391-1.074v-7.316c-.5-.206-1.116-.32-1.844-.32zm4.076 10.723c0 3.338-2.14 4.984-5.328 4.984-2.573 0-3.826-.846-4.395-1.44l1.298-1.761c.614.708 1.684 1.28 3.255 1.28 2.096 0 2.96-.96 2.96-3.087v-1.005h-.09c-.41.365-1.412.914-2.87.914-2.595 0-4.827-1.509-4.827-5.876 0-3.863 1.981-6.63 6.103-6.63 1.776 0 3.028.274 3.894.686v11.935zM89.555 20.362h5.715c.023-.366.023-.572.023-.686-.023-1.898-.843-2.95-2.664-2.95-1.594 0-2.96 1.052-3.074 3.636zm7.514 6.287c-.888.686-2.163 1.212-4.144 1.212-3.689 0-5.647-1.944-5.647-6.516 0-4.413 2.46-6.47 5.487-6.47 3.03 0 4.691 1.965 4.691 4.984 0 .617-.022 1.348-.113 2.195H89.51c.136 2.766 1.297 3.932 3.688 3.932 1.275 0 2.346-.549 2.87-1.029l1 1.692zM109.799 27.678h-2.255v-8.186c0-1.714-.842-2.697-2.413-2.697-1.39 0-2.46.891-2.87 2.035v8.848h-2.253V15.103h1.73l.455 1.28h.092c.477-.594 1.753-1.554 3.506-1.554 2.482 0 3.962 1.371 4.008 4.161v8.688z" transform="translate(2 3)"/>
            <path fill="#A6A8AB" d="M16.285 36.768h-.757v2.052h.757c.695 0 1.042-.343 1.042-1.03 0-.327-.078-.572-.235-.735-.18-.19-.449-.287-.807-.287m2.11.963c0 .563-.179 1.014-.537 1.355-.36.34-.808.51-1.346.51h-.984v2.23h-.958v-5.843h1.547c.678 0 1.171.093 1.48.278.532.322.798.811.798 1.47M21.793 37.503l-.286.861c-.107-.04-.194-.06-.261-.06-.19 0-.36.063-.509.187-.148.123-.245.273-.29.447v2.888h-.925v-3.02c0-.48-.05-.864-.151-1.151l.85-.22c.106.206.159.433.159.684.33-.456.692-.684 1.085-.684.123 0 .232.023.328.068M25.03 39.259c0-.343-.069-.614-.206-.81-.137-.197-.324-.296-.559-.296-.538 0-.807.369-.807 1.106h1.572zm.959.684h-2.54v.067c0 .81.35 1.216 1.051 1.216.381 0 .735-.14 1.06-.422l.361.566c-.443.377-.953.566-1.53.566-.6 0-1.076-.202-1.43-.604-.353-.403-.529-.947-.529-1.634 0-.71.176-1.266.53-1.672.336-.382.77-.574 1.303-.574.46 0 .849.147 1.169.44.37.337.555.956.555 1.857v.194zM30.269 41.37c-.376.377-.83.566-1.363.566-.577 0-1.023-.193-1.337-.579-.314-.385-.47-.924-.47-1.617 0-.731.193-1.309.58-1.73.347-.378.779-.566 1.295-.566.454 0 .846.154 1.177.464l-.463.616c-.241-.22-.479-.329-.714-.329-.309 0-.533.144-.673.43-.118.243-.176.64-.176 1.191 0 .569.095.957.285 1.166.146.163.334.244.564.244.29 0 .577-.14.857-.422l.438.566zM33.54 39.816c-.074-.005-.13-.008-.169-.008-.448 0-.76.064-.937.194-.177.13-.265.335-.265.616 0 .44.196.659.588.659.309 0 .564-.15.766-.448l.017-1.013zm1.27 1.596l-.48.59c-.286-.112-.48-.303-.58-.573-.309.349-.698.523-1.169.523-.471 0-.827-.12-1.068-.363-.23-.225-.345-.532-.345-.92 0-.99.701-1.486 2.102-1.486h.286v-.228c0-.253-.03-.433-.092-.54-.084-.14-.25-.212-.496-.212-.382 0-.805.164-1.27.49l-.412-.667c.61-.388 1.214-.582 1.808-.582.673 0 1.104.236 1.295.709.05.13.073.478.067 1.047l-.017 1.224c-.006.27.006.456.034.557.05.164.162.307.336.43zM38.4 37.503l-.286.861c-.107-.04-.194-.06-.26-.06-.192 0-.361.063-.51.187-.148.123-.245.273-.29.447v2.888h-.925v-3.02c0-.48-.05-.864-.15-1.151l.848-.22c.107.206.16.433.16.684.33-.456.692-.684 1.085-.684.123 0 .232.023.328.068M41.637 39.259c0-.343-.069-.614-.206-.81-.137-.197-.324-.296-.559-.296-.538 0-.807.369-.807 1.106h1.572zm.959.684h-2.54v.067c0 .81.35 1.216 1.051 1.216.382 0 .735-.14 1.06-.422l.362.566c-.443.377-.954.566-1.53.566-.6 0-1.077-.202-1.43-.604-.353-.403-.53-.947-.53-1.634 0-.71.177-1.266.53-1.672.336-.382.77-.574 1.303-.574.46 0 .85.147 1.169.44.37.337.555.956.555 1.857v.194zM45.16 41.53c0 .343-.103.653-.31.929-.208.275-.475.47-.8.582l-.336-.422c.168-.056.306-.14.412-.253.107-.113.16-.228.16-.346 0-.068-.062-.127-.185-.178-.241-.095-.362-.284-.362-.565 0-.191.065-.352.194-.481.129-.13.286-.195.47-.195.22 0 .4.088.543.262.143.175.214.397.214.667M50.685 36.768h-.757v2.052h.757c.694 0 1.042-.343 1.042-1.03 0-.327-.078-.572-.235-.735-.18-.19-.448-.287-.807-.287m2.11.963c0 .563-.179 1.014-.538 1.355-.358.34-.807.51-1.345.51h-.984v2.23h-.958v-5.843h1.547c.678 0 1.171.093 1.48.278.532.322.799.811.799 1.47M56.184 39.259c0-.343-.069-.614-.206-.81-.137-.197-.323-.296-.56-.296-.537 0-.807.369-.807 1.106h1.573zm.959.684h-2.54v.067c0 .81.35 1.216 1.052 1.216.38 0 .734-.14 1.06-.422l.36.566c-.443.377-.952.566-1.53.566-.6 0-1.076-.202-1.43-.604-.352-.403-.53-.947-.53-1.634 0-.71.178-1.266.53-1.672.337-.382.771-.574 1.304-.574.46 0 .85.147 1.169.44.37.337.555.956.555 1.857v.194zM60.792 37.503l-.286.861c-.107-.04-.193-.06-.26-.06-.191 0-.36.063-.51.187-.148.123-.245.273-.29.447v2.888h-.924v-3.02c0-.48-.05-.864-.152-1.151l.85-.22c.106.206.16.433.16.684.33-.456.692-.684 1.084-.684.123 0 .233.023.328.068M64.727 40.492c0 .433-.16.783-.48 1.051-.319.267-.734.4-1.244.4-.521 0-1.065-.157-1.631-.472l.328-.667c.515.298.976.448 1.379.448.202 0 .367-.057.496-.17.128-.112.193-.256.193-.43 0-.304-.23-.504-.69-.6l-.512-.11c-.32-.067-.569-.205-.748-.413-.18-.208-.27-.461-.27-.76 0-.4.146-.726.438-.98.292-.253.673-.379 1.143-.379.477 0 .945.123 1.404.371l-.302.642c-.392-.208-.74-.312-1.043-.312-.196 0-.353.05-.47.151-.118.102-.178.234-.178.397 0 .242.191.412.572.507l.53.135c.723.186 1.085.583 1.085 1.19M67.653 38.153c-.291 0-.505.118-.639.354-.135.237-.202.614-.202 1.132 0 .596.076 1.019.227 1.266.135.225.348.338.64.338.565 0 .849-.506.849-1.52 0-1.047-.292-1.57-.875-1.57m-.009-.7c.595 0 1.06.203 1.397.611.336.408.504.956.504 1.642 0 .687-.17 1.23-.508 1.63-.34.4-.798.6-1.375.6-.578 0-1.035-.202-1.371-.604-.337-.403-.504-.947-.504-1.634 0-.68.167-1.226.504-1.634.336-.408.787-.612 1.353-.612M74.195 41.826h-.916v-2.837c0-.288-.037-.483-.11-.587-.073-.104-.198-.156-.378-.156-.302 0-.614.16-.933.48v3.1h-.908v-3.141c0-.4-.054-.738-.16-1.013l.84-.237c.102.192.152.394.152.608.46-.405.894-.608 1.303-.608.336 0 .606.102.808.305.201.204.302.498.302.882v3.204zM77.912 39.816c-.073-.005-.13-.008-.168-.008-.449 0-.761.064-.938.194-.177.13-.265.335-.265.616 0 .44.196.659.59.659.307 0 .562-.15.764-.448l.017-1.013zm1.27 1.596l-.48.59c-.286-.112-.479-.303-.58-.573-.308.349-.698.523-1.169.523-.47 0-.827-.12-1.068-.363-.23-.225-.344-.532-.344-.92 0-.99.7-1.486 2.102-1.486h.286v-.228c0-.253-.03-.433-.093-.54-.084-.14-.249-.212-.496-.212-.382 0-.804.164-1.27.49l-.411-.667c.61-.388 1.213-.582 1.807-.582.673 0 1.104.236 1.295.709.05.13.073.478.067 1.047l-.016 1.224c-.006.27.005.456.033.557.05.164.163.307.337.43zM81.965 41.817c-.168.068-.354.101-.555.101-.623 0-.933-.402-.933-1.207v-3.639c0-.495-.029-.912-.084-1.25l.95-.21c.05.197.075.588.075 1.173v3.622c0 .417.034.675.101.777.068.101.165.121.295.06l.15.573zM84.168 41.826h-.934V37.62l.934-.169v4.374zm-.47-4.906c-.169 0-.31-.06-.426-.181-.114-.121-.172-.266-.172-.435 0-.174.06-.322.177-.443.117-.121.263-.182.437-.182.168 0 .311.06.429.182.118.12.176.269.176.443 0 .169-.06.314-.18.435-.12.12-.268.181-.442.181zM88.692 41.176L88.422 41.826 85.421 41.826 85.421 41.209 87.557 38.212 85.589 38.212 85.589 37.554 88.599 37.554 88.599 38.212 86.581 41.176zM92.207 39.259c0-.343-.069-.614-.206-.81-.138-.197-.324-.296-.56-.296-.537 0-.807.369-.807 1.106h1.573zm.958.684h-2.54v.067c0 .81.35 1.216 1.052 1.216.381 0 .734-.14 1.06-.422l.361.566c-.443.377-.953.566-1.53.566-.6 0-1.077-.202-1.43-.604-.353-.403-.53-.947-.53-1.634 0-.71.177-1.266.53-1.672.337-.382.77-.574 1.303-.574.46 0 .85.147 1.17.44.37.337.554.956.554 1.857v.194zM96.924 40.737v-2.17c-.214-.231-.471-.347-.774-.347-.572 0-.858.502-.858 1.504 0 .494.06.85.177 1.063.134.237.37.355.706.355.337 0 .586-.135.749-.405m1.05 1.088h-.849c-.028-.061-.053-.171-.075-.329-.28.282-.628.423-1.043.423-.538 0-.963-.198-1.274-.591-.31-.395-.467-.926-.467-1.596s.166-1.213.497-1.63c.33-.416.753-.625 1.27-.625.358 0 .663.13.916.389-.017-.237-.025-.47-.025-.7v-1.563l.917.144v4.593c0 .765.044 1.26.134 1.485" transform="translate(2 3)"/>
        </g>
    </g>
</svg>
