<svg xmlns="http://www.w3.org/2000/svg" width="44" height="26" viewBox="0 0 44 26">
    <g fill="none" fill-rule="evenodd">
        <path fill="#F3F7FE" stroke="#2C6CB7" d="M34.738.5H9.262L.608 13l8.654 12.5h25.476L43.392 13 34.738.5z"/>
        <path fill="#2C6CB7" fill-rule="nonzero" d="M18.275 16.26v-2.99h3.15v-1.08h-3.15v-2.06h3.36V9.05h-4.64v7.21h1.28zm6.7.08c1.03 0 1.73-.23 2.26-.59l-.52-.91c-.55.32-1.02.45-1.67.45-.88 0-1.36-.45-1.36-1.33h3.69v-.91c0-1.61-1.01-2.42-2.41-2.42-1.4 0-2.51.78-2.51 2.57v.57c0 1.97 1.25 2.57 2.52 2.57zm1.19-3.33h-2.48v-.21c0-.62.42-1.13 1.26-1.13.88 0 1.22.51 1.22 1.1v.24z"/>
    </g>
</svg>
