<svg xmlns="http://www.w3.org/2000/svg" width="44" height="26" viewBox="0 0 44 26">
    <g fill="none" fill-rule="evenodd">
        <path fill="#F3F7FE" stroke="#2C6CB7" d="M34.738.5H9.262L.608 13l8.654 12.5h25.476L43.392 13 34.738.5z"/>
        <text fill="#2C6CB7" font-family="NanumSquareOTFEB, NanumSquareOTF" font-size="10" font-weight="600">
            <tspan x="15.96" y="12">Se</tspan>
        </text>
        <path fill="#2C6CB7" fill-rule="nonzero" d="M19.04 16.37c1.4 0 2.65-.5 2.65-2.11v-.13c0-.99-.57-1.69-2.27-2.07-.85-.19-1.56-.29-1.56-.99v-.12c0-.39.42-.87 1.33-.87.58 0 1.05.07 1.63.45l.6-.99c-.73-.47-1.46-.6-2.25-.6-1.95 0-2.58 1.16-2.58 2.03v.13c0 1.67 1.35 1.88 2.55 2.14.82.18 1.27.43 1.27 1.01v.11c0 .49-.4.86-1.31.86-.86 0-1.58-.33-2.02-.7l-.62 1.02c.56.46 1.54.83 2.58.83zm6.16-.03c1.03 0 1.73-.23 2.26-.59l-.52-.91c-.55.32-1.02.45-1.67.45-.88 0-1.36-.45-1.36-1.33h3.69v-.91c0-1.61-1.01-2.42-2.41-2.42-1.4 0-2.51.78-2.51 2.57v.57c0 1.97 1.25 2.57 2.52 2.57zm1.19-3.33h-2.48v-.21c0-.62.42-1.13 1.26-1.13.88 0 1.22.51 1.22 1.1v.24z"/>
    </g>
</svg>
