<svg xmlns="http://www.w3.org/2000/svg" width="50" height="30" viewBox="0 0 50 30">
    <g fill="none" fill-rule="evenodd">
        <path d="M0 0H50V30H0z"/>
        <g fill="#2C6CB7" transform="translate(31 6)">
            <path d="M3.856 4.76l-2.524 5.392c-.468 1-.036 2.191.964 2.66.266.124.555.188.848.188H6.55l-2.097 4.11c-.153.3-.034.67.268.823.086.044.181.067.278.067.628 0 1.216-.303 1.581-.814l3.52-4.927c.321-.45.217-1.074-.232-1.395-.116-.083-.247-.14-.386-.167L6 10l1-3h5.471c.308 0 .575-.216.638-.517.057-.267-.114-.53-.38-.586l-.034-.006-5.144-.726-2.438-.917c-.488-.184-1.036.04-1.257.512z"/>
            <circle cx="7" cy="2" r="2"/>
        </g>
        <g fill="#2C6CB7" transform="translate(12 5)">
            <path d="M.941 5.66l-.844 4.79c-.063.36-.027.73.105 1.07L1.55 15l-.441 4.006c-.055.492.3.934.792.989.032.003.065.005.098.005.577 0 1.07-.417 1.164-.986l.822-4.932c.01-.055.014-.11.014-.165V7l.044-.145c.285-.952-.215-1.962-1.145-2.311-.757-.285-1.601.098-1.886.855-.032.085-.056.172-.072.261z"/>
            <circle cx="4" cy="2" r="2"/>
        </g>
    </g>
</svg>
