<svg xmlns="http://www.w3.org/2000/svg" width="50" height="30" viewBox="0 0 50 30">
    <g fill="none" fill-rule="evenodd">
        <path d="M0 0H50V30H0z"/>
        <g fill="#2C6CB7" transform="translate(3 10)">
            <path d="M5.375 4.744L4.066 7.02l-1.992.502L2 6.846l-.913-.713-.402 1.633c-.133.536.195 1.078.731 1.21.155.039.316.04.471.002l2.181-.519 2.981.915c.056.017.113.029.17.036l2.95.364c.297.037.593-.06.81-.266l.336-.318c.208-.196.321-.471.313-.756l-.096-3.152 2.805-1.965c.395-.276.559-.781.401-1.237-.128-.37-.532-.567-.902-.439-.031.01-.061.024-.09.038l-4.3 2.187c-.31.158-.517.467-.544.814l-.079 1.017-1.565-1.221.039-2.406c.006-.383-.215-.735-.563-.896l-.033-.015c-.333-.154-.722-.114-1.016.104L3.7 2.736l.987.82 1.266-.621.034 1.37-.612.439z"/>
            <path d="M11.895 8.5V5.37L15 3.511l3.805-.404c.402-.043.762.248.805.65.002.027.004.054.004.081-.003.476-.34.885-.806.98L13.375 5.92"/>
            <circle cx="3" cy="5" r="2"/>
        </g>
        <g fill="#2C6CB7" transform="translate(28 12)">
            <path d="M4.066 5.02l-1.676.826.044-.78-1.03-.61-.495 1.196c-.21.51.032 1.095.542 1.306.122.05.252.076.384.076l2.02-.003 2.68 1.053c.124.048.255.072.387.07l2.767-.058c.248-.005.486-.103.667-.273l.606-.574c.078-.073.143-.16.194-.254l1.328-2.478L17.86 3.36c.52-.112.863-.61.784-1.135-.077-.513-.555-.866-1.068-.789l-.008.002-5.458.869c-.45.072-.864.295-1.17.634l-.724.801c-.154.17-.362.283-.59.318l-1.517.233-1.734-1.614.39-1.474c.092-.353-.081-.722-.412-.876-.349-.161-.76-.103-1.05.15l-.903.785.782 1.131L5.08 3.55l-1.014 1.47z"/>
            <path d="M7.538 3.462l.028-1.995C7.573.914 8.027.473 8.58.48h.027l4.966.208c.338.014.638.22.773.53.093.215-.006.465-.22.558-.035.015-.07.025-.108.03l-4.438.657.308 1.324-1.685.275-.665-.6z"/>
            <circle cx="3" cy="3" r="2"/>
        </g>
    </g>
</svg>
