<svg xmlns="http://www.w3.org/2000/svg" width="60" height="35" viewBox="0 0 60 35">
    <g fill="none" fill-rule="evenodd">
        <path fill="#F3F7FE" stroke="#2C6CB7" d="M47.467.5H12.533L.61 17.5l11.922 17h34.934l11.922-17L47.467.5z"/>
        <path fill="#2C6CB7" fill-rule="nonzero" d="M26.448 22.037c1.09 0 2.522-.162 3.695-1.293l-.927-1.319c-.777.794-1.786 1.01-2.7 1.01-1.227 0-2.332-.768-2.332-2.827v-.996c0-2.41 1.173-2.989 2.346-2.989.886 0 1.636.135 2.44.808l.941-1.32c-.995-.794-1.99-1.076-3.381-1.076-2.278 0-4.105 1.278-4.105 4.186v1.737c0 2.894 1.882 4.079 4.023 4.079zm7.254-.04c.791 0 1.855-.364 2.141-1.024l.027.915h1.541v-5.21c0-1.493-1.268-2.368-3.027-2.368-1.282 0-2.223.47-2.986.996l.845 1.238c.627-.484 1.323-.74 2.127-.74.928 0 1.337.377 1.337 1.292v.283h-1.718c-2.114 0-2.837.902-2.837 2.113v.431c0 1.306.941 2.073 2.55 2.073zm.137-1.428c-.669 0-1.023-.282-1.023-.767v-.162c0-.578.314-.942 1.214-.942h1.677v.202c0 .552 0 .875-.314 1.171-.354.35-.832.498-1.554.498z"/>
    </g>
</svg>
