<svg xmlns="http://www.w3.org/2000/svg" width="50" height="30" viewBox="0 0 50 30">
    <g fill="none" fill-rule="evenodd">
        <path d="M0 0H50V30H0z"/>
        <g fill="#2C6CB7" transform="translate(4 9)">
            <path d="M7.82 2.936c-.862.189-1.615.138-2.723 1.686-.404.566-.298 1.834.32 3.805L2.89 8.199c-.483-.044-.944.211-1.165.644-.144.282-.032.627.25.771.057.029.118.048.18.057l4.225.6c.542.077 1.045-.296 1.129-.837l.2-1.283c-.374-1.206-.143-1.977.695-2.314.837-.336 1.555-.068 2.155.806l.161 3.09c.022.42.369.748.79.748.42 0 .767-.329.79-.748L12.5 6c-.117-1.433-.396-2.282-.838-2.549-1.562-.943-2.98-.704-3.842-.515z"/>
            <circle cx="15" cy="4" r="2"/>
        </g>
        <g fill="#2C6CB7" transform="translate(28 9)">
            <path d="M9.322 4.446C7.92 4.642 7.1 3.36 6.076 4.469c-.476.516-.204 2.194.818 5.033L2.42 9.75c-.519.028-.916.472-.887.99.001.025.004.05.007.074.077.571.576.989 1.152.964l5.612-.246c.534-.024.955-.463.956-.998l.002-1.643c-.336-1.179-.09-1.823.74-1.933.829-.11 1.362.05 1.6.482l.489 3.126c.054.35.381.588.73.533.012-.001.023-.003.034-.006.379-.08.641-.426.617-.812l-.245-3.865c.434-1.216.43-1.958-.01-2.225-1.563-.944-2.492.058-3.895.255z"/>
            <circle cx="15" cy="2" r="2"/>
        </g>
    </g>
</svg>
