<svg xmlns="http://www.w3.org/2000/svg" width="60" height="35" viewBox="0 0 60 35">
    <g fill="none" fill-rule="evenodd">
        <path fill="#F3F7FE" stroke="#2C6CB7" d="M47.467.5H12.533L.61 17.5l11.922 17h34.934l11.922-17L47.467.5z"/>
        <path fill="#2C6CB7" fill-rule="nonzero" d="M22.589 21.888V13.69c.231.7.368 1.131.504 1.468l2.032 5.115h1.39l2.06-5.115c.123-.35.26-.66.464-1.468v8.198h1.65v-9.705h-2.51l-2.318 6.03-2.413-6.03h-2.482v9.705h1.623zm12.954 3.002c2.455 0 3.573-1.01 3.573-3.069v-7.35h-1.65v.646h-.014c-.232-.323-.859-.807-2.032-.807-1.813 0-3 1.225-3 3.217v1.171c0 2.006.955 3.164 2.878 3.164.9 0 1.704-.256 2.1-.97h.027v.916c0 1.09-.64 1.588-1.855 1.588-.709 0-1.527-.377-1.827-.633l-.777 1.32c.614.47 1.636.807 2.577.807zm.096-4.469c-.996 0-1.528-.727-1.528-1.979v-.7c0-1.238.505-1.979 1.596-1.979 1.186 0 1.718.781 1.718 1.468v1.373c0 1.01-.655 1.817-1.786 1.817z"/>
    </g>
</svg>
