<svg xmlns="http://www.w3.org/2000/svg" width="44" height="26" viewBox="0 0 44 26">
    <g fill="none" fill-rule="evenodd">
        <path fill="#6200EE" d="M9 0L35 0 44 13 35 26 9 26 0 13z"/>
        <path fill="#FFF" fill-rule="nonzero" d="M16.415 16.26c1.56 0 2.29-.72 2.29-1.9v-.25c0-1-.59-1.51-1.47-1.64.86-.21 1.14-.82 1.14-1.45v-.21c0-1.18-.74-1.76-2.27-1.76h-2.8v7.21h3.11zm-.746-4.27h-1.094v-1.88h.98c1.08 0 1.52.16 1.52.77v.18c0 .853-.503.924-1.406.93zm.066 3.21h-1.16v-2.17h.97c1.37 0 1.85.22 1.85.97v.22c0 .85-.53.98-1.66.98zm8.03 1.06V9.05h-1.13l-2.41 1.34.62 1.04 1.64-.94v5.77h1.28zm7.15 0V15.2h-3.43l2.12-2.14c.67-.67 1.04-1.39 1.04-2.17v-.1c0-.99-.7-1.85-2.33-1.85-1.46 0-2.13.9-2.47 1.52l.96.63c.47-.84 1-1.01 1.52-1.01.74 0 1.03.37 1.03.76v.08c0 .41-.05.79-.89 1.65l-2.65 2.73v.96h5.1z"/>
    </g>
</svg>
