<svg xmlns="http://www.w3.org/2000/svg" width="50" height="30" viewBox="0 0 50 30">
    <g fill="none" fill-rule="evenodd">
        <path d="M0 0H50V30H0z"/>
        <g fill="#2C6CB7" transform="translate(27 9)">
            <path d="M13.481 11.095L9.73 7.367c-.067-.066-.13-.137-.186-.212-.587-.777-1.093-1.289-1.518-1.537-.445-.26-1.307-.524-2.585-.794L4.333 9.559c-.155.663-.754 1.126-1.435 1.108-.531-.014-.95-.457-.937-.988.002-.062.01-.124.023-.184l1.56-6.978c.121-.539.656-.878 1.195-.757l.07.018L9.904 3.31c1.735.728 2.936 1.338 3.603 1.832.535.395 1.352 1.18 2.451 2.351.53.566.687 1.387.4 2.107l-.387.976c-.311.783-1.197 1.165-1.98.854-.19-.076-.364-.19-.51-.335z"/>
            <path d="M7.108 10.209c0-.383.303-.696.686-.707l4.094-.115 2.054-1.32c.3-.194.702-.106.895.195l.004.006c.192.307.1.711-.206.904l-2.588 1.63-4.251.08c-.373.008-.681-.289-.688-.662v-.011z"/>
            <circle cx="19" cy="9" r="2"/>
        </g>
        <g fill="#2C6CB7" transform="translate(2 8)">
            <path d="M12.493 11.368l-5.42-1.304c-.625-.15-1.14-.592-1.383-1.188l-.848-2.075-1.348 3.72c-.231.637-.936.967-1.574.736l-.022-.009c-.645-.248-.967-.972-.72-1.617h.001l2.647-6.865c.199-.515.778-.771 1.293-.573.224.087.41.25.522.462l2.597 4.861 5.632.113c.899.018 1.612.761 1.594 1.66-.003.168-.032.334-.087.493-.407 1.194-1.657 1.882-2.884 1.586z"/>
            <path d="M5.328 11.112c0-.382.304-.695.686-.706l4.095-.115 2.053-1.32c.301-.194.702-.107.896.194 0 .002.002.004.004.006.192.307.1.712-.207.905l-2.587 1.63-4.252.08c-.373.007-.68-.29-.688-.662v-.012z"/>
            <circle cx="18" cy="10" r="2"/>
        </g>
    </g>
</svg>
