<svg xmlns="http://www.w3.org/2000/svg" width="44" height="26" viewBox="0 0 44 26">
    <g fill="none" fill-rule="evenodd">
        <path fill="#F3F7FE" stroke="#2C6CB7" d="M34.738.5H9.262L.608 13l8.654 12.5h25.476L43.392 13 34.738.5z"/>
        <path fill="#2C6CB7" fill-rule="nonzero" d="M19.395 16.37c.8 0 1.85-.12 2.71-.96l-.68-.98c-.57.59-1.31.75-1.98.75-.9 0-1.71-.57-1.71-2.1v-.74c0-1.79.86-2.22 1.72-2.22.65 0 1.2.1 1.79.6l.69-.98c-.73-.59-1.46-.8-2.48-.8-1.67 0-3.01.95-3.01 3.11v1.29c0 2.15 1.38 3.03 2.95 3.03zm5.32-.03c.58 0 1.36-.27 1.57-.76l.02.68h1.13v-3.87c0-1.11-.93-1.76-2.22-1.76-.94 0-1.63.35-2.19.74l.62.92c.46-.36.97-.55 1.56-.55.68 0 .98.28.98.96v.21h-1.26c-1.55 0-2.08.67-2.08 1.57v.32c0 .97.69 1.54 1.87 1.54zm.1-1.06c-.49 0-.75-.21-.75-.57v-.12c0-.43.23-.7.89-.7h1.23v.15c0 .41 0 .65-.23.87-.26.26-.61.37-1.14.37z"/>
    </g>
</svg>
