<svg xmlns="http://www.w3.org/2000/svg" width="60" height="35" viewBox="0 0 60 35">
    <g fill="none" fill-rule="evenodd">
        <path fill="#F3F7FE" stroke="#2C6CB7" d="M47.467.5H12.533L.61 17.5l11.922 17h34.934l11.922-17L47.467.5z"/>
        <path fill="#2C6CB7" fill-rule="nonzero" d="M22.24 22.03c2.113 0 3.102-.976 3.102-2.575v-.338c0-1.355-.8-2.046-1.991-2.222 1.165-.285 1.544-1.111 1.544-1.965v-.284c0-1.599-1.002-2.385-3.075-2.385h-3.794v9.769h4.214zm-1.01-5.786h-1.483v-2.547h1.328c1.463 0 2.059.217 2.059 1.044v.244c0 1.155-.681 1.252-1.905 1.259zm.088 4.35h-1.571v-2.94h1.314c1.856 0 2.506.298 2.506 1.314v.298c0 1.151-.718 1.328-2.249 1.328zm10.88 1.436V12.26h-1.531l-3.265 1.816.84 1.409 2.222-1.274v7.818h1.734zm9.687 0v-1.436h-4.647l2.872-2.9c.908-.908 1.409-1.883 1.409-2.94v-.135c0-1.342-.948-2.507-3.157-2.507-1.978 0-2.886 1.22-3.346 2.06l1.3.853c.637-1.138 1.355-1.368 2.06-1.368 1.002 0 1.395.501 1.395 1.03v.108c0 .555-.067 1.07-1.206 2.235l-3.59 3.699v1.3h6.91z"/>
    </g>
</svg>
