<svg xmlns="http://www.w3.org/2000/svg" width="50" height="30" viewBox="0 0 50 30">
    <g fill="none" fill-rule="evenodd">
        <path d="M0 0H50V30H0z"/>
        <g fill="#2C6CB7" transform="translate(18 4)">
            <path d="M.633 6.441l.283 4.996c.015.268.084.53.202.77l.857 1.741c.066.134.101.281.103.43l.04 3.311-.442 4.006c-.054.492.301.934.793.989.032.003.065.005.098.005.577 0 1.07-.417 1.164-.986l.822-4.932c.01-.055.014-.11.014-.165V12.69l-.142-3.868 4.123 1.78c.37.16.799-.01.958-.38l.006-.015c.16-.393 0-.843-.372-1.048L4.514 6.614l-.084-.29c-.228-.783-.91-1.35-1.722-1.431l-.415-.042C1.462 4.768.72 5.374.638 6.205c-.008.079-.01.158-.005.236z"/>
            <circle cx="2" cy="2" r="2"/>
            <path d="M11 0v22h2v1h-3V0h1z"/>
        </g>
    </g>
</svg>
