<svg xmlns="http://www.w3.org/2000/svg" width="60" height="35" viewBox="0 0 60 35">
    <g fill="none" fill-rule="evenodd">
        <path fill="#F3F7FE" stroke="#2C6CB7" d="M47.467.5H12.533L.61 17.5l11.922 17h34.934l11.922-17L47.467.5z"/>
        <path fill="#2C6CB7" fill-rule="nonzero" d="M30.286 22.037c1.091 0 2.523-.162 3.696-1.293l-.927-1.319c-.778.794-1.787 1.01-2.7 1.01-1.228 0-2.332-.768-2.332-2.827v-.996c0-2.41 1.172-2.989 2.345-2.989.887 0 1.637.135 2.441.808l.941-1.32c-.995-.794-1.99-1.076-3.382-1.076-2.277 0-4.104 1.278-4.104 4.186v1.737c0 2.894 1.881 4.079 4.022 4.079z"/>
    </g>
</svg>
