<svg xmlns="http://www.w3.org/2000/svg" width="60" height="35" viewBox="0 0 60 35">
    <g fill="none" fill-rule="evenodd">
        <path fill="#F3F7FE" stroke="#2C6CB7" d="M47.467.5H12.533L.61 17.5l11.922 17h34.934l11.922-17L47.467.5z"/>
        <path fill="#2C6CB7" fill-rule="nonzero" d="M25.964 22.037c1.909 0 3.613-.674 3.613-2.84v-.176c0-1.333-.777-2.275-3.095-2.786-1.16-.256-2.127-.39-2.127-1.333v-.162c0-.525.572-1.17 1.813-1.17.791 0 1.432.093 2.223.605l.818-1.333c-.995-.632-1.99-.807-3.068-.807-2.66 0-3.518 1.561-3.518 2.732v.175c0 2.248 1.84 2.531 3.477 2.881 1.118.242 1.732.579 1.732 1.36v.148c0 .66-.546 1.157-1.787 1.157-1.172 0-2.154-.444-2.754-.942l-.846 1.373c.764.62 2.1 1.118 3.519 1.118zm8.4-.04c1.404 0 2.359-.31 3.081-.795l-.709-1.225c-.75.43-1.39.606-2.277.606-1.2 0-1.854-.606-1.854-1.79h5.031v-1.226c0-2.167-1.377-3.257-3.286-3.257-1.91 0-3.423 1.05-3.423 3.46v.767c0 2.651 1.705 3.46 3.437 3.46zm1.622-4.484h-3.381v-.282c0-.835.572-1.521 1.718-1.521 1.2 0 1.663.686 1.663 1.48v.323z"/>
    </g>
</svg>
