<svg xmlns="http://www.w3.org/2000/svg" width="50" height="30" viewBox="0 0 50 30">
    <g fill="none" fill-rule="evenodd">
        <path d="M0 0H50V30H0z"/>
        <g transform="translate(18 3)">
            <path fill="#2C6CB7" d="M4.071 6.602l.19 5.565c.01.326.101.645.264.927l.265.463c.109.19.152.41.124.626l-.501 3.86-.556 5.101c-.06.545.334 1.035.879 1.094l.011.001c.567.056 1.082-.329 1.191-.887l1.78-9.135c.012-.057.018-.114.02-.171l.074-3.693-.245-3.164c.279-.929-.248-1.908-1.177-2.187-.049-.014-.098-.027-.148-.037l-.183-.038c-.894-.185-1.769.389-1.954 1.283-.027.129-.038.26-.034.392z"/>
            <path fill="#2C6CB7" d="M4.11 16.5L.476 20.798c-.271.32-.258.794.03 1.1.282.3.75.323 1.06.052l2.182-1.907.362-3.543zM8.5 10.5v3.223l.56.775c.253.35.725.464 1.11.265.347-.179.483-.605.304-.953l-.021-.038L8.5 10.5z"/>
            <g stroke="#2C6CB7">
                <path d="M0 0L1.185 5.148.592 9.229M1.185 5.148L5.192 5.148 5.923 9.229M.727 8.181L5.723 8.181" transform="translate(10.273 15.108)"/>
            </g>
            <circle cx="5" cy="2" r="2" fill="#2C6CB7"/>
        </g>
    </g>
</svg>
